# xmcd CD database file
#
# Track frame offsets:
#	151
#	17364
#	32473
#	47212
#	63077
#	76470
#	87531
#	99720
#	113857
#	126506
#
# Disc length: 1976 seconds
#
# Revision: 1
# Processed by: cddbd v1.5.1PL0 Copyright (c) Steve Scherf et al.
# Submitted via: CDex 1.50beta10
#
DISCID=7c07b60a
DTITLE=Lupita D'Alessio y 7 Grandes Idolos de La Balada Romántica - 100 años de Musica (DIMSA)
DYEAR=2004
DGENRE=Romántico
TTITLE0=Lupita D'Alessio - Lo Siento Mi Amor
TTITLE1=Mario Quintero - Nomás Contigo
TTITLE2=Manolo Muñoz - Llamarada
TTITLE3=Grupo El Tren - Lo Voy A Dividir
TTITLE4=Lupita D'Alessio - La Diferencia
TTITLE5=Gualberto Castro - Novia Mía
TTITLE6=Johnny Dinamo - Por Tí
TTITLE7=Analí - Una Canción No Es Suficiente
TTITLE8=Miguelito Puventud - Muchacho Pobre
TTITLE9=Lupita D'Alessio - Acariciame
EXTD=YEAR: 2004
EXTT0=
EXTT1=
EXTT2=
EXTT3=
EXTT4=
EXTT5=
EXTT6=
EXTT7=
EXTT8=
EXTT9=
PLAYORDER=
